<svg height="512pt" viewBox="0 0 512.00002 512" width="512pt" xmlns="http://www.w3.org/2000/svg"><path d="m24 175.785156h463v327.996094h-463zm0 0" fill="#517adb"/><path d="m248.898438 175.785156h238.101562v327.996094h-238.101562zm0 0" fill="#404c9f"/><path d="m0 160.785156h119.789062v30h-119.789062zm0 0" fill="#f75139"/><path d="m79.394531 237.414062h40.394531v30h-40.394531zm0 0" fill="#fee46f"/><path d="m79.394531 297.417969h40.394531v30h-40.394531zm0 0" fill="#fee46f"/><path d="m392.210938 160.785156h119.789062v30h-119.789062zm0 0" fill="#c50c1c"/><path d="m392.210938 237.414062h40.394531v30h-40.394531zm0 0" fill="#fed330"/><path d="m392.210938 297.417969h40.394531v30h-40.394531zm0 0" fill="#fed330"/><path d="m79.394531 357.421875h40.394531v30h-40.394531zm0 0" fill="#fee46f"/><path d="m392.210938 357.421875h40.394531v30h-40.394531zm0 0" fill="#fed330"/><path d="m104.789062 109.941406h302.878907v393.839844h-302.878907zm0 0" fill="#63a8e4"/><path d="m256.230469 109.941406h151.4375v393.839844h-151.4375zm0 0" fill="#517adb"/><path d="m321.75 94.941406h110.855469v30h-110.855469zm0 0" fill="#c50c1c"/><path d="m79.394531 94.941406h111.859375v30h-111.859375zm0 0" fill="#f75139"/><g fill="#fee46f"><path d="m182.816406 271.242188h146.371094v30h-146.371094zm0 0"/><path d="m182.816406 211.238281h146.371094v30h-146.371094zm0 0"/><path d="m182.816406 331.246094h146.371094v30h-146.371094zm0 0"/></g><path d="m256.230469 271.242188h72.957031v30h-72.957031zm0 0" fill="#fed330"/><path d="m256.230469 211.238281h72.957031v30h-72.957031zm0 0" fill="#fed330"/><path d="m256.230469 331.246094h72.957031v30h-72.957031zm0 0" fill="#fed330"/><path d="m210.765625 395.785156h90.46875v116.214844h-90.46875zm0 0" fill="#fb983b"/><path d="m256.230469 395.785156h45.003906v116.214844h-45.003906zm0 0" fill="#f75139"/><path d="m290.101562 0-16.515624 11.332031h-35.667969l-16.515625-11.332031-58.335938 39.070312 16.191406 24.164063v41.769531c0 21.191406 12.242188 42.296875 36.386719 62.734375 16.667969 14.109375 33.21875 22.835938 33.914063 23.199219l6.675781 3.496094 6.671875-3.496094c.699219-.363281 17.25-9.089844 33.917969-23.199219 24.144531-20.4375 36.386719-41.542969 36.386719-62.734375v-42.109375l14.722656-24.164062zm0 0" fill="#fed330"/><path d="m290.101562 0-16.515624 11.332031h-17.824219l.472656 183.101563 6.671875-3.496094c.695312-.363281 17.246094-9.089844 33.917969-23.199219 24.144531-20.4375 36.386719-41.542969 36.386719-62.734375v-42.109375l14.722656-24.164062zm0 0" fill="#fb983b"/><path d="m0 482h512v30h-512zm0 0" fill="#f75139"/><path d="m256.230469 482h255.769531v30h-255.769531zm0 0" fill="#c50c1c"/></svg>